HIERARCHY
ROOT Hips
{
	OFFSET	0.00	0.00	0.00
	CHANNELS 6 Xposition Yposition Zposition Zrotation Xrotation Yrotation
	JOINT LeftUpLeg
	{
		OFFSET	 0.126116	-0.065224	 0.014019
		CHANNELS 3 Zrotation Xrotation Yrotation
		JOINT LeftLeg
		{
			OFFSET	 0.000000	 0.569914	 0.000000
			CHANNELS 3 Zrotation Xrotation Yrotation
			JOINT LeftFoot
			{
				OFFSET	 0.000000	 0.544423	 0.000000
				CHANNELS 3 Zrotation Xrotation Yrotation
				JOINT LeftToeBase
				{
					OFFSET	 0.000000	 0.207117	 0.000000
					CHANNELS 3 Zrotation Xrotation Yrotation
					End Site
					{
						OFFSET	 0.000000	 0.207117	 0.000000
					}
				}
			}
		}
	}
	JOINT RightUpLeg
	{
		OFFSET	-0.124023	-0.065224	 0.008373
		CHANNELS 3 Zrotation Xrotation Yrotation
		JOINT RightLeg
		{
			OFFSET	 0.000000	 0.570047	 0.000000
			CHANNELS 3 Zrotation Xrotation Yrotation
			JOINT RightFoot
			{
				OFFSET	 0.000000	 0.544354	 0.000000
				CHANNELS 3 Zrotation Xrotation Yrotation
				JOINT RightToeBase
				{
					OFFSET	 0.000000	 0.207540	 0.000000
					CHANNELS 3 Zrotation Xrotation Yrotation
					End Site
					{
						OFFSET	 0.000000	 0.207540	 0.000000
					}
				}
			}
		}
	}
	JOINT Spine
	{
		OFFSET	 0.000184	 0.117403	 0.007763
		CHANNELS 3 Zrotation Xrotation Yrotation
		JOINT Spine1
		{
			OFFSET	 0.000000	 0.137269	 0.000000
			CHANNELS 3 Zrotation Xrotation Yrotation
			JOINT Spine2
			{
				OFFSET	 0.000000	 0.156879	 0.000000
				CHANNELS 3 Zrotation Xrotation Yrotation
				JOINT LeftShoulder
				{
					OFFSET	 0.080501	 0.160143	 0.002496
					CHANNELS 3 Zrotation Xrotation Yrotation
					JOINT LeftArm
					{
						OFFSET	 0.000000	 0.164363	 0.000000
						CHANNELS 3 Zrotation Xrotation Yrotation
						JOINT LeftForeArm
						{
							OFFSET	 0.000000	 0.364576	 0.000000
							CHANNELS 3 Zrotation Xrotation Yrotation
							JOINT LeftHand
							{
								OFFSET	 0.000000	 0.360812	 0.000000
								CHANNELS 3 Zrotation Xrotation Yrotation
								JOINT LeftHandIndex1
								{
									OFFSET	 0.000000	 0.086006	 0.000000
									CHANNELS 3 Zrotation Xrotation Yrotation
									JOINT LeftHandIndex2
									{
										OFFSET	 0.000000	 0.047237	 0.000000
										CHANNELS 3 Zrotation Xrotation Yrotation
										JOINT LeftHandIndex3
										{
											OFFSET	-0.004284	 0.038165	 0.000551
											CHANNELS 3 Zrotation Xrotation Yrotation
											End Site
											{
												OFFSET	-0.004284	 0.038165	 0.000551
											}
										}
									}
								}
							}
						}
					}
				}
				JOINT Neck
				{
					OFFSET	 0.000000	 0.176489	 0.000000
					CHANNELS 3 Zrotation Xrotation Yrotation
					JOINT Head
					{
						OFFSET	 0.000000	 0.077941	 0.001747
						CHANNELS 3 Zrotation Xrotation Yrotation
						End Site
						{
							OFFSET	 0.000000	 0.077941	 0.001747
						}
					}
				}
				JOINT RightShoulder
				{
					OFFSET	-0.080363	 0.159706	-0.000306
					CHANNELS 3 Zrotation Xrotation Yrotation
					JOINT RightArm
					{
						OFFSET	 0.000000	 0.164196	 0.000000
						CHANNELS 3 Zrotation Xrotation Yrotation
						JOINT RightForeArm
						{
							OFFSET	 0.000000	 0.365611	 0.000000
							CHANNELS 3 Zrotation Xrotation Yrotation
							JOINT RightHand
							{
								OFFSET	 0.000000	 0.360648	 0.000000
								CHANNELS 3 Zrotation Xrotation Yrotation
								JOINT RightHandIndex1
								{
									OFFSET	 0.000000	 0.069977	 0.000000
									CHANNELS 3 Zrotation Xrotation Yrotation
									JOINT RightHandIndex2
									{
										OFFSET	 0.000000	 0.052305	 0.000000
										CHANNELS 3 Zrotation Xrotation Yrotation
										JOINT RightHandIndex3
										{
											OFFSET	 0.009002	 0.042196	 0.000782
											CHANNELS 3 Zrotation Xrotation Yrotation
											End Site
											{
												OFFSET	 0.009002	 0.042196	 0.000782
											}
										}
									}
								}
							}
						}
					}
				}
			}
		}
	}
}
MOTION
Frames:    11
Frame Time: 0.03333334
 0.001360	 1.301214	 0.061418	 0.015593	-0.011744	 179.999900	-174.982200	 0.637796	-25.205990	 2.058445	-9.622961	-0.084163	-4.918290	 63.274820	 4.073885	 1.292262	 28.425850	-2.713146	 174.915500	 1.148498	 25.229430	-2.125869	-10.227820	 0.075972	 4.934503	 63.514800	-4.146218	-1.288183	 28.361890	 2.710176	-1.747153	 2.066604	 38.327590	 0.008086	 3.690146	-0.000993	-0.003820	-4.717752	-0.004157	-101.478000	 1.740670	 90.353390	 56.170780	 37.141680	-44.945380	 1.997675	 3.875168	 1.248002	-28.854030	 9.837051	-8.547273	-6.580301	 5.266122	 0.000000	 0.000000	 0.000000	 0.000000	 0.000000	 0.000000	 0.000000	 0.089846	-3.783161	 0.005928	 0.000015	 1.263154	-0.001370	 101.796200	-0.213312	-89.955450	-108.831900	-3.692590	 62.509200	-2.885321	 4.211370	-5.566386	 9.669294	-14.981990	-59.314350	 15.208500	 5.323790	 0.000000	 0.000000	 0.000000	 0.000000	 0.000000	 0.000000	 0.000000
 0.001360	 1.301214	 0.061418	 0.015593	-0.011744	 179.999900	-174.982200	 0.637796	-25.205990	 2.058445	-9.622961	-0.084163	-4.918290	 63.274820	 4.073885	 1.292262	 28.425850	-2.713146	 174.915500	 1.148498	 25.229430	-2.125869	-10.227820	 0.075972	 4.934503	 63.514800	-4.146218	-1.288183	 28.361890	 2.710176	-1.657905	 2.138856	 35.895550	 0.008086	 3.690146	-0.000993	-0.003820	-4.717752	-0.004157	-101.478000	 1.740670	 90.353390	 56.111520	 37.102600	-44.828230	 5.361063	 3.949222	 4.425411	-28.932280	 5.893480	-6.448051	-6.580301	 5.266122	 0.000000	 0.000000	 0.000000	 0.000000	 0.000000	 0.000000	 0.000000	 0.089846	-3.783161	 0.005928	 0.000015	 1.263154	-0.001370	 101.796200	-0.213312	-89.955450	-109.125400	-4.347263	 61.817940	-6.194483	 4.494650	-8.999249	 3.401332	-17.085140	-65.971670	 15.208500	 5.323790	 0.000000	 0.000000	 0.000000	 0.000000	 0.000000	 0.000000	 0.000000
 0.001360	 1.301214	 0.061418	 0.015593	-0.011744	 179.999900	-174.982200	 0.637796	-25.205990	 2.058445	-9.622961	-0.084163	-4.918290	 63.274820	 4.073885	 1.292262	 28.425850	-2.713146	 174.915500	 1.148498	 25.229430	-2.125869	-10.227820	 0.075972	 4.934503	 63.514800	-4.146218	-1.288183	 28.361890	 2.710176	-1.472803	 2.270256	 31.086460	 0.008086	 3.690146	-0.000993	-0.003820	-4.717752	-0.004157	-101.478000	 1.740670	 90.353390	 56.087180	 37.084030	-44.735400	 9.440326	 4.020555	 7.946711	-29.045370	 0.516188	-3.966897	-6.580301	 5.266122	 0.000000	 0.000000	 0.000000	 0.000000	 0.000000	 0.000000	 0.000000	 0.089846	-3.783161	 0.005928	 0.000015	 1.263154	-0.001370	 101.796200	-0.213312	-89.955450	-109.250800	-4.639662	 61.089040	-10.238030	 4.904629	-12.784320	-5.389708	-19.211730	-74.349000	 15.208500	 5.323790	 0.000000	 0.000000	 0.000000	 0.000000	 0.000000	 0.000000	 0.000000
 0.001360	 1.301214	 0.061418	 0.015593	-0.011744	 179.999900	-174.982200	 0.637796	-25.205990	 2.058445	-9.622961	-0.084163	-4.918290	 63.274820	 4.073885	 1.292262	 28.425850	-2.713146	 174.915500	 1.148462	 25.229400	-2.125850	-10.227730	 0.075975	 4.934444	 63.514770	-4.146164	-1.288183	 28.361890	 2.710176	-1.185927	 2.432385	 24.102680	 0.008086	 3.690146	-0.000993	-0.003820	-4.717752	-0.004157	-101.478000	 1.740670	 90.353390	 56.138580	 37.120680	-44.885790	 13.474990	 4.072367	 11.423830	-29.063460	-5.074948	-1.240300	-6.580301	 5.266122	 0.000000	 0.000000	 0.000000	 0.000000	 0.000000	 0.000000	 0.000000	 0.089846	-3.783161	 0.005928	 0.000015	 1.263154	-0.001370	 101.796200	-0.213312	-89.955450	-109.013400	-4.032512	 62.146080	-14.297160	 5.254858	-15.782220	-6.383616	-20.197430	-73.260530	 15.208500	 5.323790	 0.000000	 0.000000	 0.000000	 0.000000	 0.000000	 0.000000	 0.000000
 0.001359	 1.301214	 0.061418	 0.015580	-0.011744	 179.999900	-174.982200	 0.637748	-25.205980	 2.058434	-9.622915	-0.084164	-4.918292	 63.274830	 4.073884	 1.292262	 28.425850	-2.713146	 174.915500	 1.148499	 25.229400	-2.125870	-10.227820	 0.075974	 4.934457	 63.514800	-4.146164	-1.288183	 28.361890	 2.710176	 1.627141	 2.162347	-38.874180	 0.008062	 3.690150	-0.000993	-0.003809	-4.717791	-0.004099	-101.478000	 1.740668	 90.353390	 59.333710	 39.015930	-48.900680	 27.341350	 4.101749	 23.352670	-29.141380	-21.335310	 16.761730	-6.580301	 5.266122	 0.000000	 0.000000	 0.000000	 0.000000	 0.000000	 0.000000	 0.000000	 0.089846	-3.783161	 0.005928	 0.000015	 1.263154	-0.001370	 101.796200	-0.213308	-89.955440	-12.492040	 33.084600	 11.590600	-109.345000	 33.936350	 45.527220	-20.498180	-63.488830	-72.123600	 15.208500	 5.323790	 0.000000	 0.000000	 0.000000	 0.000000	 0.000000	 0.000000	 0.000000
 0.001359	 1.301214	 0.061418	 0.015580	-0.011744	 179.999900	-174.982200	 0.637854	-25.206060	 2.058471	-9.623077	-0.084160	-4.918459	 63.274890	 4.074071	 1.292262	 28.425850	-2.713146	 174.915500	 1.148499	 25.229420	-2.125871	-10.227830	 0.075975	 4.934496	 63.514820	-4.146214	-1.288183	 28.361890	 2.710176	 1.621481	 2.166594	-38.724320	 0.008073	 3.690145	-0.000993	-0.003816	-4.717752	-0.004158	-101.478000	 1.740667	 90.353380	 59.687320	 39.213890	-49.326870	 26.265790	 4.109815	 22.425680	-29.090540	-17.830330	 17.475590	-6.580301	 5.266122	 0.000000	 0.000000	 0.000000	 0.000000	 0.000000	 0.000000	 0.000000	 0.089846	-3.783161	 0.005928	 0.000015	 1.263154	-0.001370	 101.796200	-0.213318	-89.955430	-6.611826	 34.373000	 4.500627	-101.479100	 36.283030	 40.138110	-17.576590	-57.662490	-62.331060	 15.208500	 5.323790	 0.000000	 0.000000	 0.000000	 0.000000	 0.000000	 0.000000	 0.000000
 0.001359	 1.301214	 0.061418	 0.015580	-0.011744	 179.999900	-174.982200	 0.637854	-25.206060	 2.058471	-9.623077	-0.084160	-4.918459	 63.274890	 4.074071	 1.292262	 28.425850	-2.713146	 174.915500	 1.148499	 25.229420	-2.125871	-10.227830	 0.075975	 4.934496	 63.514820	-4.146214	-1.288183	 28.361890	 2.710176	 1.561790	 2.209999	-37.161170	 0.008073	 3.690145	-0.000993	-0.003816	-4.717752	-0.004158	-101.478000	 1.740667	 90.353380	 60.010410	 39.392920	-49.722100	 24.856440	 4.116675	 21.213030	-29.031970	-13.891520	 17.965020	-6.580301	 5.266122	 0.000000	 0.000000	 0.000000	 0.000000	 0.000000	 0.000000	 0.000000	 0.089846	-3.783161	 0.005928	 0.000015	 1.263154	-0.001370	 101.796200	-0.213318	-89.955430	-2.631103	 36.232960	-0.740620	-90.725590	 38.135810	 32.574570	-14.709500	-50.579750	-52.995690	 15.208500	 5.323790	 0.000000	 0.000000	 0.000000	 0.000000	 0.000000	 0.000000	 0.000000
 0.001360	 1.301214	 0.061418	 0.015593	-0.011744	 179.999900	-174.982200	 0.637796	-25.205990	 2.058445	-9.622961	-0.084163	-4.918290	 63.274820	 4.073885	 1.292262	 28.425850	-2.713146	 174.915500	 1.148498	 25.229430	-2.125869	-10.227820	 0.075972	 4.934503	 63.514800	-4.146218	-1.288183	 28.361890	 2.710176	 1.458520	 2.279455	-34.525040	 0.008086	 3.690146	-0.000993	-0.003820	-4.717752	-0.004157	-101.478000	 1.740670	 90.353390	 60.283880	 39.543690	-50.061930	 23.251620	 4.122553	 19.831010	-28.972720	-9.922300	 18.233020	-6.580301	 5.266122	 0.000000	 0.000000	 0.000000	 0.000000	 0.000000	 0.000000	 0.000000	 0.089846	-3.783161	 0.005928	 0.000015	 1.263154	-0.001370	 101.796200	-0.213312	-89.955450	-0.231975	 38.673150	-4.281636	-78.446980	 38.550830	 23.970470	-12.607140	-42.979810	-45.125350	 15.208500	 5.323790	 0.000000	 0.000000	 0.000000	 0.000000	 0.000000	 0.000000	 0.000000
 0.001360	 1.301214	 0.061418	 0.015593	-0.011744	 179.999900	-174.982200	 0.637796	-25.205990	 2.058445	-9.622961	-0.084163	-4.918290	 63.274820	 4.073885	 1.292262	 28.425850	-2.713146	 174.915500	 1.148498	 25.229430	-2.125869	-10.227820	 0.075972	 4.934503	 63.514800	-4.146218	-1.288183	 28.361890	 2.710176	 0.367161	 2.680927	-9.700431	 0.008086	 3.690146	-0.000993	-0.003820	-4.717752	-0.004157	-101.478000	 1.740670	 90.353390	 60.983960	 39.926310	-50.995670	 12.349440	 4.070645	 10.447180	-28.708880	 8.471845	 17.046970	-6.580301	 5.266122	 0.000000	 0.000000	 0.000000	 0.000000	 0.000000	 0.000000	 0.000000	 0.089846	-3.783161	 0.005928	 0.000015	 1.263154	-0.001370	 101.796200	-0.213312	-89.955450	-0.024492	 52.660220	-7.976851	-28.595200	 23.244000	-1.086775	-9.975573	-7.974452	-22.455370	 15.208500	 5.323790	 0.000000	 0.000000	 0.000000	 0.000000	 0.000000	 0.000000	 0.000000
 0.001360	 1.301214	 0.061418	 0.015593	-0.011744	 179.999900	-174.982200	 0.637796	-25.205990	 2.058445	-9.622961	-0.084163	-4.918290	 63.274820	 4.073885	 1.292262	 28.425850	-2.713146	 174.915500	 1.148498	 25.229430	-2.125869	-10.227820	 0.075972	 4.934503	 63.514800	-4.146218	-1.288183	 28.361890	 2.710176	 0.367161	 2.680927	-9.700431	 0.008086	 3.690146	-0.000993	-0.003820	-4.717752	-0.004157	-101.478000	 1.740670	 90.353390	 61.041650	 39.954960	-51.022470	 12.349450	 4.070739	 10.447190	-28.733140	 8.306062	 17.021570	-6.580301	 5.266122	 0.000000	 0.000000	 0.000000	 0.000000	 0.000000	 0.000000	 0.000000	 0.089846	-3.783161	 0.005928	 0.000015	 1.263154	-0.001370	 101.796200	-0.213312	-89.955450	-1.176892	 55.226880	-7.111183	-24.337540	 18.651360	-3.719629	-13.940830	-5.324694	-23.715640	 15.208500	 5.323790	 0.000000	 0.000000	 0.000000	 0.000000	 0.000000	 0.000000	 0.000000
 0.001360	 1.301214	 0.061418	 0.015593	-0.011744	 179.999900	-174.982200	 0.637796	-25.205990	 2.058445	-9.622961	-0.084163	-4.918290	 63.274820	 4.073885	 1.292262	 28.425850	-2.713146	 174.915500	 1.148498	 25.229430	-2.125869	-10.227820	 0.075972	 4.934503	 63.514800	-4.146218	-1.288183	 28.361890	 2.710176	 0.367161	 2.680927	-9.700431	 0.008086	 3.690146	-0.000993	-0.003820	-4.717752	-0.004157	-101.478000	 1.740670	 90.353390	 61.091100	 39.979720	-51.048200	 12.349580	 4.070889	 10.447240	-28.752360	 8.174094	 17.001320	-6.580301	 5.266122	 0.000000	 0.000000	 0.000000	 0.000000	 0.000000	 0.000000	 0.000000	 0.089846	-3.783161	 0.005928	 0.000015	 1.263154	-0.001370	 101.796200	-0.213312	-89.955450	-3.078369	 58.231260	-5.553255	-19.809270	 13.145700	-6.164344	-17.672830	-2.369597	-24.206940	 15.208500	 5.323790	 0.000000	 0.000000	 0.000000	 0.000000	 0.000000	 0.000000	 0.000000
